<?xml version="1.0" encoding="UTF-8" standalone="no" ?>
<!DOCTYPE svg PUBLIC "-//W3C//DTD SVG 1.1//EN" "http://www.w3.org/Graphics/SVG/1.1/DTD/svg11.dtd">
<svg xmlns="http://www.w3.org/2000/svg" xmlns:xlink="http://www.w3.org/1999/xlink" version="1.1" width="1080" height="1080" viewBox="0 0 1080 1080" xml:space="preserve">
<desc>Created with Fabric.js 5.2.4</desc>
<defs>
</defs>
<g transform="matrix(1 0 0 1 540 540)" id="75a89997-de4a-45ac-a2b7-f77680024f0f"  >
</g>
<g transform="matrix(1 0 0 1 540 540)" id="ce1fce02-cd83-4cd2-bbe9-8c257406a1a5"  >
<rect style="stroke: none; stroke-width: 1; stroke-dasharray: none; stroke-linecap: butt; stroke-dashoffset: 0; stroke-linejoin: miter; stroke-miterlimit: 4; fill: rgb(255,255,255); fill-rule: nonzero; opacity: 1; visibility: hidden;" vector-effect="non-scaling-stroke"  x="-540" y="-540" rx="0" ry="0" width="1080" height="1080" />
</g>
<g transform="matrix(9.31 0 0 9.31 209.1 456.36)"  >
<path style="stroke: none; stroke-width: 1; stroke-dasharray: none; stroke-linecap: butt; stroke-dashoffset: 0; stroke-linejoin: miter; stroke-miterlimit: 4; fill: rgb(14,165,234); fill-rule: nonzero; opacity: 1;" vector-effect="non-scaling-stroke"  transform=" translate(-22.46, -9.02)" d="M 26.951 3.67277 L 26.951 10.9082 L 17.9673 15.9268 L 17.9673 5.87176 L 24.4261 2.325 C 24.6771 2.18425 24.9613 2.10874 25.2513 2.10577 C 25.5412 2.10281 25.8271 2.17249 26.0811 2.30807 C 26.3351 2.44366 26.5486 2.64054 26.7011 2.87963 C 26.8535 3.11873 26.9396 3.39193 26.951 3.67277 Z" stroke-linecap="round" />
</g>
<g transform="matrix(9.31 0 0 9.31 125.46 456.36)"  >
<path style="stroke: none; stroke-width: 1; stroke-dasharray: none; stroke-linecap: butt; stroke-dashoffset: 0; stroke-linejoin: miter; stroke-miterlimit: 4; fill: rgb(14,165,234); fill-rule: nonzero; opacity: 0.3;" vector-effect="non-scaling-stroke"  transform=" translate(-13.48, -9.02)" d="M 8.98355 3.67277 L 8.98355 10.9082 L 17.9673 15.9268 L 17.9673 5.87176 L 11.5085 2.325 C 11.2575 2.18425 10.9733 2.10874 10.6833 2.10577 C 10.3933 2.10281 10.1075 2.17249 9.8535 2.30807 C 9.5995 2.44366 9.38594 2.64054 9.23352 2.87963 C 9.0811 3.11873 8.995 3.39193 8.98355 3.67277 Z" stroke-linecap="round" />
</g>
<g transform="matrix(9.31 0 0 9.31 216.79 607.29)"  >
<path style="stroke: none; stroke-width: 1; stroke-dasharray: none; stroke-linecap: butt; stroke-dashoffset: 0; stroke-linejoin: miter; stroke-miterlimit: 4; fill: rgb(14,165,234); fill-rule: nonzero; opacity: 1;" vector-effect="non-scaling-stroke"  transform=" translate(-23.28, -25.23)" d="M 25.1509 32.0785 L 18.8694 28.4878 L 18.9706 18.1978 L 27.7001 23.1878 L 27.5741 30.5552 C 27.5717 30.843 27.4962 31.1273 27.3549 31.3805 C 27.2135 31.6337 27.0112 31.8472 26.7674 32.0005 C 26.5237 32.1537 26.2468 32.2414 25.9635 32.2551 C 25.6803 32.2687 25.4004 32.2079 25.1509 32.0785 Z" stroke-linecap="round" />
</g>
<g transform="matrix(9.31 0 0 9.31 250.41 540.35)"  >
<path style="stroke: none; stroke-width: 1; stroke-dasharray: none; stroke-linecap: butt; stroke-dashoffset: 0; stroke-linejoin: miter; stroke-miterlimit: 4; fill: rgb(14,165,234); fill-rule: nonzero; opacity: 0.3;" vector-effect="non-scaling-stroke"  transform=" translate(-26.9, -18.04)" d="M 34.0676 16.4797 L 27.786 12.889 L 18.9706 18.1978 L 27.7001 23.1878 L 33.9846 19.3406 C 34.2313 19.1925 34.438 18.9832 34.5844 18.733 C 34.7309 18.4827 34.8123 18.2 34.8206 17.9122 C 34.829 17.6244 34.764 17.3413 34.6321 17.0903 C 34.5001 16.8393 34.3057 16.629 34.0676 16.4797 Z" stroke-linecap="round" />
</g>
<g transform="matrix(9.31 0 0 9.31 113.06 607.29)"  >
<path style="stroke: none; stroke-width: 1; stroke-dasharray: none; stroke-linecap: butt; stroke-dashoffset: 0; stroke-linejoin: miter; stroke-miterlimit: 4; fill: rgb(14,165,234); fill-rule: nonzero; opacity: 0.3;" vector-effect="non-scaling-stroke"  transform=" translate(-12.14, -25.23)" d="M 10.2771 32.0785 L 16.5586 28.4878 L 16.4574 18.1978 L 7.72785 23.1878 L 7.85393 30.5552 C 7.8563 30.843 7.9318 31.1273 8.07312 31.3805 C 8.21445 31.6337 8.41679 31.8472 8.66056 32.0005 C 8.90432 32.1537 9.18123 32.2414 9.46444 32.2551 C 9.74766 32.2687 10.0276 32.2079 10.2771 32.0785 Z" stroke-linecap="round" />
</g>
<g transform="matrix(9.31 0 0 9.31 79.44 540.35)"  >
<path style="stroke: none; stroke-width: 1; stroke-dasharray: none; stroke-linecap: butt; stroke-dashoffset: 0; stroke-linejoin: miter; stroke-miterlimit: 4; fill: rgb(14,165,234); fill-rule: nonzero; opacity: 1;" vector-effect="non-scaling-stroke"  transform=" translate(-8.53, -18.04)" d="M 1.36043 16.4797 L 7.64198 12.889 L 16.4574 18.1978 L 7.72785 23.1878 L 1.44339 19.3406 C 1.19663 19.1925 0.990009 18.9832 0.843538 18.733 C 0.697066 18.4827 0.615716 18.2 0.607371 17.9122 C 0.599025 17.6244 0.663967 17.3413 0.795903 17.0903 C 0.92784 16.8393 1.1223 16.629 1.36043 16.4797 Z" stroke-linecap="round" />
</g>
<g transform="matrix(1 0 0 1 670.49 540)" style="" id="206b55b8-2c9a-45b4-833e-254d53c2e319"  >
		<text xml:space="preserve" font-family="Raleway" font-size="133" font-style="normal" font-weight="900" style="stroke: none; stroke-width: 1; stroke-dasharray: none; stroke-linecap: butt; stroke-dashoffset: 0; stroke-linejoin: miter; stroke-miterlimit: 4; fill: rgb(216,230,251); fill-rule: nonzero; opacity: 1; white-space: pre;" ><tspan x="-287.35" y="41.78" >Hammas</tspan></text>
</g>
<g transform="matrix(0 0 0 0 0 0)"  >
<g style=""   >
</g>
</g>
<g transform="matrix(NaN NaN NaN NaN 0 0)"  >
<g style=""   >
</g>
</g>
</svg>